<?xml version="1.0" encoding="utf-8"?>
<!-- Generator: Adobe Illustrator 16.0.0, SVG Export Plug-In . SVG Version: 6.00 Build 0)  -->
<!DOCTYPE svg PUBLIC "-//W3C//DTD SVG 1.1//EN" "http://www.w3.org/Graphics/SVG/1.1/DTD/svg11.dtd">
<svg version="1.1" id="Layer_1" xmlns="http://www.w3.org/2000/svg" xmlns:xlink="http://www.w3.org/1999/xlink" x="0px" y="0px"
	 width="500px" height="300px" viewBox="0 0 500 300" enable-background="new 0 0 500 300" xml:space="preserve">
<g>
	<path fill="#1B75BB" d="M116.631,150.6v42.473h-8.796V150.6H116.631z"/>
	<path fill="#1B75BB" d="M136.32,163.196c1.948,0,3.731,0.304,5.348,0.91c1.617,0.605,3.007,1.484,4.17,2.638
		c1.163,1.154,2.072,2.568,2.724,4.241c0.652,1.674,0.979,3.571,0.979,5.688c0,0.664-0.029,1.201-0.085,1.619
		c-0.057,0.417-0.161,0.746-0.312,0.992c-0.152,0.246-0.354,0.416-0.61,0.511s-0.582,0.141-0.979,0.141h-16.967
		c0.285,2.46,1.032,4.242,2.241,5.349c1.211,1.106,2.771,1.661,4.683,1.661c1.021,0,1.9-0.123,2.638-0.37
		c0.737-0.243,1.394-0.52,1.972-0.821c0.576-0.303,1.105-0.577,1.588-0.824c0.482-0.245,0.989-0.368,1.518-0.368
		c0.7,0,1.229,0.255,1.589,0.767l2.554,3.149c-0.908,1.039-1.887,1.885-2.937,2.539c-1.05,0.652-2.127,1.162-3.234,1.531
		c-1.107,0.369-2.213,0.624-3.319,0.767c-1.107,0.142-2.161,0.213-3.163,0.213c-2.063,0-3.997-0.336-5.803-1.008
		c-1.806-0.671-3.386-1.668-4.738-2.993c-1.353-1.322-2.422-2.97-3.206-4.936c-0.785-1.968-1.177-4.257-1.177-6.867
		c0-1.968,0.335-3.831,1.007-5.59c0.671-1.758,1.636-3.298,2.894-4.625c1.258-1.322,2.781-2.373,4.567-3.147
		C132.05,163.585,134.069,163.196,136.32,163.196z M136.491,169.27c-1.684,0-2.998,0.478-3.944,1.431
		c-0.946,0.957-1.57,2.332-1.873,4.13h10.98c0-0.699-0.091-1.382-0.271-2.044c-0.179-0.66-0.473-1.252-0.879-1.771
		c-0.407-0.52-0.941-0.943-1.604-1.263C138.24,169.429,137.437,169.27,136.491,169.27z"/>
	<path fill="#1B75BB" d="M154.592,193.073v-29.422h5.447c0.548,0,1.008,0.123,1.376,0.368c0.369,0.246,0.628,0.615,0.78,1.107
		l0.482,1.588c0.492-0.51,1.002-0.978,1.532-1.404c0.529-0.425,1.102-0.793,1.716-1.104c0.614-0.314,1.277-0.559,1.986-0.739
		c0.709-0.179,1.489-0.271,2.341-0.271c1.777,0,3.249,0.46,4.411,1.377c1.163,0.918,2.047,2.142,2.653,3.675
		c0.491-0.908,1.092-1.684,1.802-2.327c0.709-0.644,1.475-1.162,2.298-1.56c0.822-0.397,1.692-0.69,2.61-0.88
		c0.917-0.188,1.831-0.285,2.737-0.285c1.684,0,3.179,0.252,4.483,0.754c1.306,0.501,2.398,1.229,3.278,2.184
		c0.879,0.957,1.546,2.128,2,3.519c0.455,1.391,0.681,2.965,0.681,4.723v18.698h-8.795v-18.698c0-3.044-1.305-4.566-3.915-4.566
		c-1.191,0-2.18,0.393-2.965,1.177c-0.785,0.784-1.177,1.915-1.177,3.39v18.698h-8.795v-18.698c0-1.682-0.331-2.864-0.994-3.545
		c-0.662-0.682-1.635-1.021-2.921-1.021c-0.794,0-1.547,0.18-2.255,0.538c-0.709,0.361-1.377,0.843-2.001,1.449v21.277H154.592z"/>
	<path fill="#1B75BB" d="M216.044,163.196c1.948,0,3.731,0.304,5.348,0.91c1.617,0.605,3.008,1.484,4.17,2.638
		c1.163,1.154,2.071,2.568,2.724,4.241c0.652,1.674,0.978,3.571,0.978,5.688c0,0.664-0.027,1.201-0.085,1.619
		c-0.056,0.417-0.16,0.746-0.311,0.992c-0.152,0.246-0.355,0.416-0.61,0.511s-0.582,0.141-0.979,0.141h-16.966
		c0.284,2.46,1.03,4.242,2.241,5.349c1.21,1.106,2.77,1.661,4.681,1.661c1.021,0,1.9-0.123,2.639-0.37
		c0.737-0.243,1.395-0.52,1.972-0.821c0.577-0.303,1.106-0.577,1.589-0.824c0.483-0.245,0.988-0.368,1.518-0.368
		c0.7,0,1.229,0.255,1.588,0.767l2.554,3.149c-0.908,1.039-1.887,1.885-2.936,2.539c-1.05,0.652-2.128,1.162-3.235,1.531
		c-1.106,0.369-2.213,0.624-3.32,0.767c-1.106,0.142-2.161,0.213-3.163,0.213c-2.063,0-3.996-0.336-5.802-1.008
		c-1.806-0.671-3.386-1.668-4.738-2.993c-1.353-1.322-2.422-2.97-3.206-4.936c-0.786-1.968-1.177-4.257-1.177-6.867
		c0-1.968,0.334-3.831,1.007-5.59c0.671-1.758,1.636-3.298,2.894-4.625c1.258-1.322,2.78-2.373,4.567-3.147
		C211.774,163.585,213.792,163.196,216.044,163.196z M216.215,169.27c-1.684,0-2.999,0.478-3.945,1.431
		c-0.946,0.957-1.57,2.332-1.873,4.13h10.981c0-0.699-0.091-1.382-0.271-2.044c-0.18-0.66-0.473-1.252-0.88-1.771
		c-0.406-0.52-0.939-0.943-1.603-1.263C217.963,169.429,217.16,169.27,216.215,169.27z"/>
	<path fill="#1B75BB" d="M234.314,193.073v-29.422h5.448c0.548,0,1.008,0.123,1.376,0.368c0.369,0.246,0.629,0.615,0.78,1.107
		l0.511,1.703c0.568-0.529,1.153-1.022,1.759-1.477c0.606-0.454,1.252-0.836,1.944-1.147c0.69-0.314,1.438-0.559,2.242-0.739
		c0.803-0.179,1.678-0.271,2.624-0.271c1.608,0,3.031,0.279,4.27,0.839c1.24,0.558,2.284,1.333,3.136,2.325
		c0.852,0.994,1.494,2.177,1.929,3.547c0.435,1.372,0.653,2.862,0.653,4.468v18.698h-8.795v-18.698c0-1.435-0.332-2.557-0.994-3.36
		s-1.637-1.206-2.922-1.206c-0.964,0-1.873,0.208-2.724,0.624c-0.851,0.417-1.665,0.974-2.439,1.675v20.966H234.314z"/>
	<path fill="#1B75BB" d="M277.551,193.527c-1.399,0-2.632-0.204-3.702-0.61c-1.068-0.408-1.968-0.983-2.694-1.731
		c-0.729-0.747-1.282-1.648-1.659-2.708c-0.378-1.061-0.568-2.242-0.568-3.548v-15.206h-2.496c-0.454,0-0.842-0.146-1.165-0.441
		c-0.32-0.292-0.48-0.723-0.48-1.29v-3.433l4.682-0.908l1.731-7.179c0.226-0.907,0.867-1.361,1.928-1.361h4.597v8.597h7.15v6.016
		h-7.15v14.609c0,0.682,0.164,1.245,0.497,1.688c0.33,0.447,0.808,0.668,1.433,0.668c0.321,0,0.591-0.034,0.807-0.1
		c0.218-0.064,0.408-0.142,0.568-0.227c0.162-0.086,0.313-0.161,0.454-0.228c0.143-0.065,0.307-0.1,0.496-0.1
		c0.267,0,0.478,0.063,0.639,0.185c0.161,0.123,0.327,0.318,0.496,0.582l2.669,4.171c-1.136,0.852-2.413,1.489-3.831,1.915
		C280.53,193.314,279.065,193.527,277.551,193.527z"/>
	<path fill="#1B75BB" d="M300.419,193.073h-9.647v-41.338h9.647V193.073z"/>
	<path fill="#1B75BB" d="M345.588,172.39c0,2.988-0.517,5.744-1.547,8.269c-1.032,2.527-2.482,4.711-4.355,6.557
		c-1.872,1.844-4.129,3.281-6.767,4.312c-2.64,1.032-5.566,1.547-8.781,1.547H308.08v-41.338h16.058
		c3.215,0,6.142,0.521,8.781,1.561c2.638,1.04,4.895,2.479,6.767,4.313c1.873,1.835,3.323,4.015,4.355,6.54
		C345.071,166.673,345.588,169.421,345.588,172.39z M335.771,172.39c0-2.043-0.265-3.887-0.796-5.532
		c-0.529-1.645-1.289-3.041-2.28-4.185c-0.995-1.146-2.21-2.022-3.648-2.639c-1.438-0.615-3.072-0.923-4.908-0.923h-6.412v26.585
		h6.412c1.836,0,3.471-0.307,4.908-0.922c1.438-0.616,2.653-1.494,3.648-2.639c0.991-1.145,1.751-2.539,2.28-4.186
		C335.506,176.306,335.771,174.451,335.771,172.39z"/>
	<path fill="#1B75BB" d="M417.894,106.663c-1.548,3.077-5.294,4.317-8.367,2.771l-11.836-5.949
		c-3.076-1.545-4.317-5.292-2.769-8.368l5.948-11.837c1.546-3.076,5.292-4.313,8.367-2.768l11.834,5.948
		c3.076,1.546,4.317,5.291,2.771,8.367L417.894,106.663z"/>
	<path fill="#26A9E0" d="M407.775,112.914l-11.835-5.948c-3.076-1.546-6.822-0.305-8.369,2.772l-5.948,11.834l-9.191,18.285
		c-4.859-7.515-11.714-13.88-20.289-18.191c-21.593-10.855-45.592-3.75-62.396,12.083c-7.738,7.292-1.317,10.005,3.533,6.334
		c12.106-9.17,28.867-11.269,43.328-4c20.256,10.182,28.453,34.943,18.272,55.197s-34.941,28.449-55.198,18.27
		c-3.647-1.836-6.897-4.148-9.725-6.817c4.243,4.765,9.423,8.83,15.471,11.871c25.663,12.898,56.924,2.553,69.825-23.111
		l29.341-58.372l5.949-11.836C412.09,118.207,410.852,114.459,407.775,112.914z"/>
	<path fill="#1B75BB" d="M102.106,159.111v-7.376c0,0-16.402-0.004-16.574,0c-3.653,0.087-7.073,1.08-10.039,2.762v35.817
		c2.961,1.677,6.374,2.67,10.02,2.759c0.179,0.003,16.593,0,16.593,0v-7.377H85.14v-9.844h12.994v-7.095H85.14v-9.646H102.106z"/>
</g>
</svg>
