<?xml version="1.0" encoding="utf-8"?>
<!-- Generator: Adobe Illustrator 16.0.0, SVG Export Plug-In . SVG Version: 6.00 Build 0)  -->
<!DOCTYPE svg PUBLIC "-//W3C//DTD SVG 1.1//EN" "http://www.w3.org/Graphics/SVG/1.1/DTD/svg11.dtd">
<svg version="1.1" id="Layer_1" xmlns="http://www.w3.org/2000/svg" xmlns:xlink="http://www.w3.org/1999/xlink" x="0px" y="0px"
	 width="1280px" height="640px" viewBox="0 0 1280 640" enable-background="new 0 0 1280 640" xml:space="preserve">
<g>
	<path fill="#29ABE2" d="M303.862,296.221c-29.581,0-53.562,23.981-53.562,53.563c0,29.579,23.981,53.562,53.562,53.562
		s53.562-23.982,53.562-53.562C357.424,320.202,333.443,296.221,303.862,296.221z M297.149,385.348
		c-23.665,0-42.85-19.186-42.85-42.85c0-3.716,0.474-7.32,1.363-10.757c4.773-18.458,21.538-32.092,41.487-32.092
		c12.913,0,24.483,5.719,32.339,14.756c6.542,7.522,10.51,17.341,10.51,28.093C339.999,366.162,320.814,385.348,297.149,385.348z"/>
	<circle fill="#1B1464" cx="371.802" cy="221.135" r="14.283"/>
	<circle fill="none" cx="303.862" cy="349.783" r="53.562"/>
	<path fill="#1B1464" d="M387,237.272v-0.055c-4,3.322-9.181,5.342-14.604,5.342c-5.554,0-10.841-2.114-14.648-5.58l14.772,14.43
		L387,237.272z"/>
	<path fill="#0071BC" d="M372.646,251.41L358,236.98v28.859v38.757c-12-8.965-27.012-14.28-43.09-14.28
		c-39.442,0-71.536,31.976-71.536,71.416c0,39.441,32.371,71.416,71.813,71.416S387,401.174,387,361.732v-96.186v-28.274
		L372.646,251.41z M303.862,403.345c-29.581,0-53.562-23.982-53.562-53.562c0-29.581,23.981-53.563,53.562-53.563
		s53.562,23.981,53.562,53.563C357.424,379.362,333.443,403.345,303.862,403.345z"/>
	<g>
		<linearGradient id="SVGID_1_" gradientUnits="userSpaceOnUse" x1="471.4985" y1="394.9033" x2="471.4985" y2="299.6665">
			<stop  offset="0" style="stop-color:#0071BC"/>
			<stop  offset="1" style="stop-color:#00FFFF"/>
		</linearGradient>
		<path fill="url(#SVGID_1_)" d="M462.272,394.903c-2.152,0-4.323-0.194-6.517-0.58c-2.195-0.387-4.259-1.161-6.195-2.323
			c-1.935-1.16-3.507-2.924-4.71-5.29c-1.205-2.365-1.807-5.528-1.807-9.485v-59.362c0-3.527,0.517-6.452,1.549-8.775
			c1.032-2.323,2.407-4.172,4.13-5.55c1.719-1.375,3.633-2.363,5.742-2.967c2.107-0.602,4.236-0.904,6.388-0.904
			c4.903,0.087,9.569,0.174,14.001,0.258c4.431,0.088,8.731,0.194,12.905,0.322c4.172,0.13,8.237,0.281,12.195,0.452v5.808H462.4
			c-3.613,0-6.497,0.969-8.646,2.903c-2.152,1.936-3.227,5.056-3.227,9.356v25.164l44.005,0.646v5.55l-44.005,0.645v25.036
			c0,3.528,0.624,6.15,1.872,7.871c1.246,1.722,2.859,2.861,4.839,3.419c1.977,0.562,4.001,0.839,6.065,0.839h36.65v5.808
			c-3.958,0.172-8.065,0.322-12.325,0.451c-4.258,0.13-8.496,0.258-12.711,0.388C470.702,394.709,466.486,394.817,462.272,394.903z"
			/>
		<linearGradient id="SVGID_2_" gradientUnits="userSpaceOnUse" x1="531.1841" y1="394.5166" x2="531.1841" y2="295.9243">
			<stop  offset="0" style="stop-color:#0071BC"/>
			<stop  offset="1" style="stop-color:#00FFFF"/>
		</linearGradient>
		<path fill="url(#SVGID_2_)" d="M535.441,394.517c-3.613,0-6.689-0.688-9.228-2.064c-2.538-1.375-4.451-3.656-5.742-6.841
			c-1.29-3.182-1.935-7.569-1.935-13.163v-76.524h7.484v75.752c0,4.474,0.407,7.871,1.226,10.194
			c0.816,2.322,2.02,3.915,3.613,4.774c1.591,0.861,3.42,1.42,5.484,1.678l7.485,0.902v5.292H535.441z"/>
		<linearGradient id="SVGID_3_" gradientUnits="userSpaceOnUse" x1="580.0913" y1="395.1611" x2="580.0913" y2="324.8311">
			<stop  offset="0" style="stop-color:#0071BC"/>
			<stop  offset="1" style="stop-color:#00FFFF"/>
		</linearGradient>
		<path fill="url(#SVGID_3_)" d="M581.125,395.161c-7.055,0-12.627-1.097-16.713-3.291c-4.086-2.193-6.99-5.87-8.709-11.032
			c-1.723-5.162-2.583-12.174-2.583-21.035c0-9.033,0.904-16.086,2.71-21.164c1.807-5.074,4.795-8.646,8.97-10.71
			c4.172-2.065,9.743-3.098,16.711-3.098c5.849,0,10.646,0.667,14.388,2.001c3.744,1.334,6.537,3.635,8.389,6.903
			c1.849,3.271,2.774,7.788,2.774,13.55c0,3.871-0.754,6.991-2.258,9.354c-1.506,2.368-3.678,4.066-6.517,5.099
			c-2.84,1.033-6.194,1.549-10.065,1.549h-27.617c0,6.281,0.601,11.313,1.807,15.1c1.204,3.785,3.376,6.538,6.517,8.258
			c3.14,1.722,7.764,2.58,13.874,2.58h22.711v4.518c-4.13,0.433-8.022,0.774-11.679,1.033
			C590.178,395.033,585.941,395.161,581.125,395.161z M560.476,357.996h27.23c4.213,0,7.355-0.752,9.42-2.258
			c2.066-1.504,3.098-4.324,3.098-8.453c0-4.301-0.625-7.656-1.871-10.066c-1.248-2.406-3.226-4.106-5.937-5.097
			c-2.71-0.988-6.345-1.484-10.904-1.484c-5.421,0-9.659,0.774-12.711,2.323c-3.056,1.549-5.207,4.303-6.453,8.259
			C561.1,345.178,560.476,350.77,560.476,357.996z"/>
		<linearGradient id="SVGID_4_" gradientUnits="userSpaceOnUse" x1="676.877" y1="394.3867" x2="676.877" y2="324.4434">
			<stop  offset="0" style="stop-color:#0071BC"/>
			<stop  offset="1" style="stop-color:#00FFFF"/>
		</linearGradient>
		<path fill="url(#SVGID_4_)" d="M625.646,394.387v-68.781h5.548l1.936,7.743c3.527-2.409,7.527-4.495,12.001-6.259
			c4.473-1.763,9.334-2.646,14.582-2.646c4.301,0,8,0.969,11.1,2.903c3.096,1.937,5.418,4.453,6.967,7.551
			c2.15-1.722,4.84-3.355,8.066-4.904s6.666-2.859,10.324-3.937c3.656-1.075,7.117-1.613,10.389-1.613
			c4.816,0,8.84,1.055,12.064,3.163c3.227,2.108,5.615,4.902,7.162,8.387c1.549,3.484,2.324,7.292,2.324,11.421v46.973h-7.484
			v-46.456c0-3.182-0.646-6.021-1.938-8.518c-1.291-2.493-3.119-4.473-5.484-5.936c-2.367-1.462-5.227-2.193-8.582-2.193
			c-4.215,0-8.561,0.796-13.033,2.387c-4.475,1.593-8.689,3.548-12.646,5.872c0.516,1.289,0.924,2.646,1.227,4.064
			c0.301,1.42,0.451,2.86,0.451,4.323v46.456h-7.484v-46.456c0-3.182-0.646-6.021-1.936-8.518c-1.291-2.493-3.098-4.473-5.42-5.936
			c-2.324-1.462-5.162-2.193-8.518-2.193c-3.271,0-6.217,0.279-8.84,0.838c-2.625,0.562-5.162,1.399-7.613,2.517
			c-2.452,1.119-5.014,2.409-7.679,3.872v55.876H625.646z"/>
		<linearGradient id="SVGID_5_" gradientUnits="userSpaceOnUse" x1="773.1455" y1="395.1611" x2="773.1455" y2="324.8311">
			<stop  offset="0" style="stop-color:#0071BC"/>
			<stop  offset="1" style="stop-color:#00FFFF"/>
		</linearGradient>
		<path fill="url(#SVGID_5_)" d="M774.18,395.161c-7.057,0-12.629-1.097-16.713-3.291c-4.088-2.193-6.99-5.87-8.711-11.032
			c-1.723-5.162-2.582-12.174-2.582-21.035c0-9.033,0.904-16.086,2.711-21.164c1.807-5.074,4.795-8.646,8.969-10.71
			c4.172-2.065,9.744-3.098,16.713-3.098c5.848,0,10.646,0.667,14.389,2.001s6.535,3.635,8.387,6.903
			c1.85,3.271,2.775,7.788,2.775,13.55c0,3.871-0.754,6.991-2.26,9.354c-1.504,2.368-3.676,4.066-6.516,5.099
			c-2.838,1.033-6.193,1.549-10.064,1.549H753.66c0,6.281,0.6,11.313,1.807,15.1c1.203,3.785,3.375,6.538,6.516,8.258
			c3.141,1.722,7.764,2.58,13.873,2.58h22.713v4.518c-4.129,0.433-8.023,0.774-11.68,1.033
			C783.232,395.033,778.994,395.161,774.18,395.161z M753.531,357.996h27.229c4.215,0,7.355-0.752,9.42-2.258
			c2.066-1.504,3.098-4.324,3.098-8.453c0-4.301-0.625-7.656-1.871-10.066c-1.248-2.406-3.227-4.106-5.938-5.097
			c-2.709-0.988-6.346-1.484-10.902-1.484c-5.422,0-9.66,0.774-12.711,2.323c-3.055,1.549-5.209,4.303-6.453,8.259
			C754.154,345.178,753.531,350.77,753.531,357.996z"/>
		<linearGradient id="SVGID_6_" gradientUnits="userSpaceOnUse" x1="846.1855" y1="394.3867" x2="846.1855" y2="324.4434">
			<stop  offset="0" style="stop-color:#0071BC"/>
			<stop  offset="1" style="stop-color:#00FFFF"/>
		</linearGradient>
		<path fill="url(#SVGID_6_)" d="M818.699,394.387v-68.781h5.549l1.936,7.743c3.439-2.323,7.42-4.388,11.938-6.194
			s9.27-2.711,14.26-2.711c4.816,0,8.795,1.055,11.936,3.163s5.486,4.902,7.035,8.387s2.32,7.207,2.32,11.163v47.23h-7.482v-46.456
			c0-3.182-0.646-6.021-1.936-8.518c-1.289-2.493-3.098-4.473-5.422-5.936c-2.322-1.462-5.162-2.193-8.516-2.193
			c-3.271,0-6.217,0.279-8.84,0.838c-2.625,0.562-5.164,1.399-7.613,2.517c-2.453,1.119-5.014,2.409-7.68,3.872v55.876H818.699z"/>
		<linearGradient id="SVGID_7_" gradientUnits="userSpaceOnUse" x1="906.1934" y1="394.3867" x2="906.1934" y2="306.3774">
			<stop  offset="0" style="stop-color:#0071BC"/>
			<stop  offset="1" style="stop-color:#00FFFF"/>
		</linearGradient>
		<path fill="url(#SVGID_7_)" d="M916.002,394.387c-4.131,0-7.596-0.729-10.389-2.193c-2.797-1.462-4.885-3.783-6.262-6.968
			c-1.375-3.182-2.063-7.312-2.063-12.389l0.387-40.908h-10.969v-4.904l10.969-1.419l1.42-19.229h5.678v19.229h20.906v6.323h-20.906
			v40.908c0,3.271,0.365,5.916,1.098,7.937c0.73,2.022,1.678,3.548,2.838,4.58s2.408,1.742,3.742,2.129
			c1.336,0.388,2.602,0.626,3.809,0.711l8.387,0.775v5.418H916.002z"/>
		<linearGradient id="SVGID_8_" gradientUnits="userSpaceOnUse" x1="944.5195" y1="394.3867" x2="944.5195" y2="299.6665">
			<stop  offset="0" style="stop-color:#0071BC"/>
			<stop  offset="1" style="stop-color:#00FFFF"/>
		</linearGradient>
		<path fill="url(#SVGID_8_)" d="M940.777,394.387v-94.721h7.484v94.721H940.777z"/>
		<linearGradient id="SVGID_9_" gradientUnits="userSpaceOnUse" x1="1002.9131" y1="394.3867" x2="1002.9131" y2="299.6665">
			<stop  offset="0" style="stop-color:#0071BC"/>
			<stop  offset="1" style="stop-color:#00FFFF"/>
		</linearGradient>
		<path fill="url(#SVGID_9_)" d="M969.297,394.387v-94.721h36.648c5.592,0,10.301,0.99,14.131,2.969
			c3.828,1.979,6.969,4.968,9.422,8.968c2.451,4.001,4.236,8.949,5.355,14.842c1.115,5.894,1.676,12.756,1.676,20.582
			c0,9.724-1.141,18.112-3.418,25.165c-2.281,7.055-5.678,12.518-10.195,16.389c-4.518,3.872-10.176,5.807-16.971,5.807H969.297z
			 M976.781,387.677h28.648c5.504,0,9.979-1.697,13.422-5.097c3.439-3.397,6-8.15,7.678-14.26
			c1.678-6.108,2.516-13.206,2.516-21.294c0-7.312-0.451-13.549-1.354-18.711c-0.904-5.162-2.303-9.356-4.195-12.583
			c-1.893-3.226-4.322-5.591-7.291-7.097s-6.561-2.259-10.775-2.259h-28.648V387.677z"/>
	</g>
</g>
</svg>
