<?xml version="1.0" encoding="utf-8"?>
<!-- Generator: Adobe Illustrator 16.0.0, SVG Export Plug-In . SVG Version: 6.00 Build 0)  -->
<!DOCTYPE svg PUBLIC "-//W3C//DTD SVG 1.1//EN" "http://www.w3.org/Graphics/SVG/1.1/DTD/svg11.dtd">
<svg version="1.1" id="Layer_1" xmlns="http://www.w3.org/2000/svg" xmlns:xlink="http://www.w3.org/1999/xlink" x="0px" y="0px"
	 width="500px" height="500px" viewBox="0 0 500 500" enable-background="new 0 0 500 500" xml:space="preserve">
<g>
	<path fill="#29ABE2" d="M232.383,213.443c-45.475,0-82.342,36.867-82.342,82.343c0,45.473,36.867,82.341,82.342,82.341
		c45.477,0,82.344-36.868,82.344-82.341C314.727,250.311,277.859,213.443,232.383,213.443z M222.063,350.46
		c-36.379,0-65.873-29.494-65.873-65.874c0-5.712,0.73-11.253,2.096-16.536c7.338-28.377,33.109-49.336,63.777-49.336
		c19.854,0,37.641,8.792,49.717,22.685c10.057,11.564,16.158,26.659,16.158,43.188C287.938,320.966,258.445,350.46,222.063,350.46z"
		/>
	<circle fill="#1B1464" cx="336.83" cy="98.012" r="21.957"/>
	<path fill="none" d="M232.383,213.443c-45.475,0-82.342,36.867-82.342,82.343c0,45.473,36.867,82.341,82.342,82.341
		c45.477,0,82.344-36.868,82.344-82.341C314.727,250.311,277.859,213.443,232.383,213.443z"/>
	<path fill="#1B1464" d="M361,122.821v-0.084c-7,5.107-14.517,8.212-22.854,8.212c-8.537,0-16.868-3.249-22.72-8.578l23.011,22.184
		L361,122.821z"/>
	<path fill="#0071BC" d="M338.725,144.555L316,122.371v44.365v59.583c-18-13.783-41.72-21.953-66.437-21.953
		c-60.635,0-110.073,49.157-110.073,109.79c0,60.634,50.118,109.789,110.755,109.789C310.88,423.945,361,374.79,361,314.156V166.288
		v-43.467L338.725,144.555z M232.383,378.127c-45.475,0-82.342-36.868-82.342-82.341c0-45.476,36.867-82.343,82.342-82.343
		c45.477,0,82.344,36.867,82.344,82.343C314.727,341.259,277.859,378.127,232.383,378.127z"/>
</g>
</svg>
